<mxfile host="app.diagrams.net" modified="2023-08-30T03:38:16.638Z" agent="Mozilla/5.0 (X11; Linux x86_64) AppleWebKit/537.36 (KHTML, like Gecko) Chrome/116.0.0.0 Safari/537.36" version="21.6.9" etag="xWB23_8WTRT4ltOZELOM" type="github">
  <diagram name="Page-1" id="0hZzSjCSSXxUyAPfNmll">
    <mxGraphModel>
      <root>
        <mxCell id="0" />
        <mxCell id="1" parent="0" />
      </root>
    </mxGraphModel>
  </diagram>
</mxfile>
